<svg xmlns="http://www.w3.org/2000/svg" viewBox="0 0 867 877" version="1.1" width="867" height="877">
	<path d="M 405 6.0128794906442025 C 351.65322226469215 8.939676501511729, 285.41414747613703 26.66906754056056, 238.41793943719748 50.59983215017525 C 196.14983905046262 72.12301461656513, 162.84179584331807 96.03906779140607, 131.41287874338113 127.43228687034502 C 87.65099378450805 171.14446560856774, 57.84029811954693 215.88916263912358, 34.50149867244721 272.89250654525 C 20.41145045789711 307.3064388406283, 9.019096160970417 352.48058991518724, 4.842363934117657 390.5 C 3.1021175013885487 406.3408868898008, 3.1016965389770323 464.1958344351722, 4.841705440767328 481 C 10.49032282690555 535.5516184838872, 26.38392877155296 590.9892240695738, 49.70925164986133 637.5 C 76.96305265245287 691.8441751394907, 120.82150914444611 744.2148338719503, 170.5 781.7342381802323 C 211.99880497492626 813.0759801564935, 245.7800974276195 831.5796652877091, 290.60443331065864 847.5213782062003 C 322.56796892336416 858.889165336997, 361.582497760559 867.6583516084547, 395.2796534078849 871.0489339757141 C 411.4384853349153 872.674823447832, 468.6038885038083 871.7327395025094, 483.3517086931124 869.5975094301609 C 507.52345139904696 866.0978578705212, 538.3553878694254 859.2551347854666, 561 852.3645420506662 C 627.541215405793 832.1165284041502, 691.7412597428632 792.0930357437302, 744.2229120828356 738.139996683276 C 779.2290509423211 702.152418300516, 809.6688901528161 654.773543701969, 829.7623033382164 605 C 848.4980594816305 558.5895186850964, 858.6065899642728 511.6679421457767, 861.1651684663732 459.23480275447355 C 863.9622777171709 401.9134350030547, 857.405074698072 352.35678257498387, 839.8374487892692 298.04864029418434 C 828.6241730208275 263.3841854026882, 809.0262044991003 222.63456563312917, 790.5180922947411 195.5 C 772.2106364265308 168.65961469508667, 757.0038476231018 150.1699607246528, 736.8578138407652 130.2554573555053 C 701.7203111167896 95.52177607906695, 673.6836444410876 75.0677852354322, 631.5 53.39226300608557 C 563.5704351904456 18.48753128913637, 483.37777906280087 1.7127912900477096, 405 6.0128794906442025 M 465.5527833033384 30.04290050482919 C 484.91835450010257 31.615431908169256, 511.89195578300695 35.8828052533022, 525.5 39.526882712587906 C 592.9777482745865 57.59664627080121, 644.0900844812215 82.42027927294271, 688 118.44795465381414 C 720.5548787037259 145.15892843147697, 737.402090294804 162.84390787472523, 762.8789465708469 197.0504357634357 C 770.0904142370083 206.73292041414365, 782.1211675163419 226.04353537338088, 782.3603396463604 228.32010540224576 C 782.4837718399086 229.4949999537433, 773.621699396334 237.37446213652083, 763.3744665573258 245.20085987187628 C 758.6349104159735 248.8207299415858, 752.2003514639134 249.73013422049002, 746.5623032780843 247.5769439730071 C 744.1677202302643 246.66244436331715, 737.3158302958077 242.20290354606755, 731.3358812015139 237.66685326800797 C 718.5255820857875 227.94968679223217, 712.2724039728392 225.46026559123257, 702.6389635820154 226.2424681257724 C 694.6897343496909 226.88791845305994, 688.7062526759677 229.78431958826678, 680.300743071761 237.0556452645173 C 661.9110831794775 252.9639259576178, 653.7178182306893 252.96943329433785, 635.1497074158597 237.08599482091157 C 624.4225493133205 227.9098240507374, 621.6484636346361 226.7045939367018, 611 226.59390553672415 C 600.4965924210875 226.48472496203155, 597.1964029561468 227.87564545717828, 584 237.97351078906604 C 564.6174975263931 252.80496906022293, 559.7747594271998 252.75055994349904, 541.5875977761596 237.4969990934365 C 524.4149296353636 223.0942933018717, 511.69874980281503 222.20267189490488, 495.0857920274607 234.23642822906214 C 477.4775589395538 246.9911218435409, 476.02743893716274 247.87333947813602, 471.57237495209176 248.5414175811687 C 464.9125138359685 249.54012543269016, 459.4122807041973 247.19865189492356, 448.16320756394737 238.5760316298211 C 427.2194800474226 222.52228150665704, 415.7643330766321 221.8786206692722, 397.67839979806536 235.7393073411971 C 382.8542951476129 247.10019575027053, 379.3537630229164 248.99999999999997, 373.24457686368794 249 C 366.4983314611379 249, 363.6696358970885 247.52816882156714, 352.5 238.20615021304582 C 342.72304015534763 230.04643914937793, 337.6976365205695 227.33149147626511, 330.5599703407127 226.3531654976921 C 324.4302295721863 225.5129910646692, 314.6897175357156 228.18644199405077, 308.12237651628413 232.51154873652024 L 303.045836022461 235.85484695314838 303.53028211123524 230.17742347657418 C 303.7967274600611 227.05484056445837, 304.463715565441 217.75, 305.01247790096835 209.5 C 306.69682239153235 184.1778502321973, 308.1158693462808 172.8927671672527, 309.69170689909834 172.2880615598417 C 312.08075286277074 171.3712986054291, 333.29057589220645 182.77161265142547, 341.671771017275 189.4773975412091 C 350.8665463206389 196.83412702598525, 358.5155474826116 205.30505107301167, 365.9005674000498 216.30969754525574 C 371.68352614241894 224.92706313598023, 373.7782376479964 225.7492554036974, 375.29850966622894 219.99847064987222 C 376.59962820974295 215.0766852106722, 375.4545727903119 202.57274255819365, 373.07149648412775 195.67960831118984 C 368.1149103958578 181.34250411330325, 356.860716304676 168.86370329081015, 342.8423451320675 162.16112127434985 L 334.6998253870445 158.2679509666393 340.3075757232426 157.56730881665297 C 361.6443343418367 154.90145681968153, 384.9256595879197 157.87034418919518, 399.28155641712783 165.08780451702023 C 409.4183705988472 170.18411128750634, 411.46332776753553 170.24258023794272, 410.6797080367253 165.41369787670362 C 409.3400724671311 157.1584915334262, 397.1237413820167 143.66011731383793, 386.39478931451873 138.5801978249522 C 372.98490089786367 132.2309147744748, 351.19548162775595 129.98601564416566, 336.5082480805878 133.44053569619513 C 333.21278452491106 134.21564728526715, 330.38973963455373 134.7230729678868, 330.23481499090485 134.56814832423876 C 329.6630881818264 133.9964215151634, 343.77011333876857 121.32404942236099, 351.0175292024759 115.89898989732572 C 355.13288814111417 112.81843434085488, 361.9220640166861 108.42617359074414, 366.1045867037469 106.13841045263518 C 370.2871093908077 103.85064731452624, 374.5561354989156 101.04295853401742, 375.5913113884311 99.89910205150446 C 377.4089867565676 97.89059337775612, 377.4110425030466 97.77372997759923, 375.6513337542515 96.48699952478142 C 374.64917016593716 95.75419961759673, 370.4303316655893 94.83613433674556, 366.2761370868118 94.44685445622329 C 344.2175115748858 92.37979213140197, 319.792499427427 105.54529288737353, 309.55996240848066 125.01784603221188 L 305.8920554505262 131.9978855900307 302.99929799491247 126.49866546692482 C 293.07659157762305 107.63529802499318, 282.2524905587421 98.54032242123414, 264.2441512735138 93.93456491609072 C 251.55881072937126 90.69020120819405, 237.00000000000006 91.76004562026458, 237 95.93658304403925 C 237 97.06617311305662, 240.59937081911923 99.90060713588743, 247.25 104.00825728768528 C 257.30162754055095 110.21647733270838, 274.31257950680407 125.69914536852079, 279.80744135794805 133.64069982473674 L 281.9805312420491 136.78139964947349 274.24026562102455 134.26149926855703 C 251.02179467788577 126.70255534614301, 223.10990831759034 132.79845899605982, 206.9580314926289 148.95581305672422 C 200.71237150597798 155.2035909985972, 196.58200931725938 161.51465987397003, 197.62949760927006 163.20953153326082 C 198.409442874532 164.4715094818191, 202.75954059696355 164.1273103953943, 206.66766571102443 162.4943914600767 C 219.8134070038452 157.00175004012797, 228.8287914955417 155.49920743064737, 248.5 155.52243537976608 C 273.3660375520325 155.55179743217437, 274.00694082644577 155.9238753637752, 262.11564479605414 163.4270305899645 C 252.7527352525924 169.334827645375, 246.70589031087178 175.24955949934463, 242.22772910271624 182.88042977485844 C 238.6990834049176 188.89330789972655, 234.91277930221813 199.48440858119906, 234.14126348214353 205.5 L 233.5 210.5 226.6896602137133 211.17320942014703 C 222.94397333125562 211.54347460122787, 218.55647333125563 212.30756582154316, 216.93966021371332 212.87118990973656 C 215.32284709617102 213.43481399792995, 214.00000000000003 213.64024474720895, 214 213.32770268591213 C 213.99999999999997 213.01516062461533, 217.93749999999997 208.28548691747332, 222.75 202.817316670041 C 238.45655567974842 184.97085008144057, 237.6062376609595 186.17766623238805, 235.76884999141402 184.3402785628425 C 234.37310571241775 182.94453428384625, 233.4944719844614 182.8875535923845, 229.32634646712899 183.92247271965886 C 217.74651772204422 186.7976707454898, 208.40407059365697 192.81838019972605, 201.52478050105995 201.83910085297538 L 197.74827096702614 206.79118705552 192.86100226497882 199.48411375861951 C 184.92768969208186 187.62282681258026, 170.3482148317839 179.9814819122455, 155.711904519796 180.0136546832925 C 144.04735402382963 180.03929508749778, 141.55833887986657 182.72501708289167, 149.25000000000003 186.98624347731578 C 161.87702295278837 193.98168992887344, 172.8281385842159 203.05536595653118, 178.97593103431126 211.61601426083152 C 182.25373856628704 216.18027984367436, 182.283481994924 216.305421002703, 179.92962801449414 215.62855588536996 C 165.58781337736545 211.50447931654355, 148.3391537408866 213.10631648967362, 137.23600634659317 219.59339904909973 C 130.55897939408374 223.49449335635026, 122.48787511805301 232.09055821080884, 118.98306528403293 239.03354748384913 C 117.34237937781485 242.2837280034109, 116.00000000000004 245.40579912300194, 116.00000000000003 245.97148330516254 C 115.99999999999997 248.1163044187986, 120.2468192811841 246.80858296495109, 132.1771682841951 240.99005399841684 C 144.42243090093987 235.0179390820496, 156.2452657713301 232.02704025003706, 167.69098300562507 232.00589511139276 C 171.95188550243898 231.99802340076064, 172.5213843982112 233.28099008015647, 168.9572829764675 234.85861472291685 C 157.6996048239876 239.84174746017996, 146.8853529002235 258.23438094344766, 145.3927192836904 274.9366881994509 C 144.4176034464151 285.84806266132034, 147.4526245529189 290.15881646327455, 151.59299193282288 283.7431669544502 C 162.55420454289214 266.75837023345525, 167.55081648459443 259.8086022095456, 171.6685019285303 255.82021855267504 C 176.45201273580264 251.1869174941191, 190.33913407050488 242.00000000000003, 192.5594103356167 242.00000000000003 C 193.25123799064042 242.00000000000003, 193.96523523175134 244.6941397079118, 194.34828615499072 248.75 C 195.17511978786666 257.5047673071362, 195.17587029639958 302.6881090749838, 194.34938937746466 315.16800312720915 L 193.7091259204671 324.8360062544183 117.85456296023355 324.76665405963126 C 76.1345533321051 324.7285103524984, 41.999999999999986 324.4449081342285, 41.99999999999997 324.13642690792045 C 41.99999999999996 323.8279456816124, 44.71061325003634 315.3365829660814, 48.02358500008083 305.2667319845182 C 57.25252204290704 277.21517351945124, 68.03779848813375 253.80766124680375, 84.77701037756665 225.5 C 151.76975279310017 112.20865326159937, 268.8889727775543 40.46780819597658, 404.5 29.655138110847616 C 414.5624125037117 28.852832067662497, 453.98028327633364 29.103185403078943, 465.5527833033384 30.04290050482919 M 569.8872763705882 109.37651885107442 C 556.457676609721 114.11725547591362, 547.3748910158472 122.43697985983985, 541.3221898311297 135.54180091735915 C 538.7930048453824 141.01778852158247, 538.5674424236718 142.51165526640094, 538.5351433291984 154 C 538.5002806620435 166.40017236206324, 538.5297764522279 166.5623601932505, 542.2284830187514 174.30848301875133 C 559.501714223187 210.4834452917378, 610.1532338003168 210.4537012203511, 627.298548853591 174.2585273583449 C 630.4086329251114 167.69288342912205, 630.5 167.1147198709002, 630.5 154 C 630.5 141.54333851863316, 630.299261681719 140.07493615907538, 627.9026001643808 135 C 617.4876612865542 112.94634347684503, 591.8506431633762 101.62330660250458, 569.8872763705882 109.37651885107442 M 297 173.51744509237955 C 297 173.8020398931883, 296.1096505448306 178.18953989318828, 295.0214456551791 183.26744509237955 C 292.5645135155019 194.73226077623698, 289.46998982759914 214.3031416743338, 288.0274483154169 227.5 C 283.8990052026602 265.26839585171194, 282.2477821600307 283.13772166332774, 280.89459956460814 304.69078222782343 L 279.62694595147514 324.88156445564687 245.31347297573757 324.94792707851957 L 211 325.01428970139233 210.9983359852398 318.25714485069614 C 210.9958708528777 308.2468631838464, 209.1138320759996 280.31277709258796, 207.4542966762752 265.65488161165615 C 205.96403652709566 252.4921147856525, 205.58088969667088 243, 206.53983806729644 243 C 206.8367490043095 243, 208.7492490043095 243.8651202342109, 210.78983806729644 244.92248940935755 C 223.65865837479265 251.59070799410785, 237.1430166178735 266.64637036598634, 245.11724729075485 283.25 C 246.37195352620503 285.8625, 247.96651696739406 288, 248.6607216045082 288 C 251.10136279994776 288, 252.3590051689337 280.09257715284826, 251.20545435659855 272 C 249.05487355883068 256.9128960395423, 242.33051527458895 245.8593704579408, 229.3037022540864 235.99781705351054 L 222.70173747260355 231 228.10086873630178 231.01313719365538 C 231.0703909313358 231.02036265016585, 237.55 231.87058374328836, 242.5 232.9025174005943 C 251.3511921664941 234.74773822966253, 254.4295418117824 236.17103035016083, 269.41588439406866 245.347226607996 C 278.1285988037238 250.6820557647753, 279.72394303891696 248.39292345738514, 274.8847809235112 237.5 C 270.9374207128012 228.61451701584787, 260.7614738649752 219.1647386798253, 250.60939577000764 214.9569372115784 C 247.52422809650344 213.6782065965338, 245 212.35342980254728, 245 212.0129887804972 C 245 209.24340719787838, 260.7799032422215 191.73074590481718, 267.5054490788413 187.0362635803433 C 271.1364148219519 184.50182177950208, 289.35041091411745 174.96222506784116, 293 173.68346977814363 C 295.0376340082185 172.96951672612576, 297 172.88806642684085, 297 173.51744509237955 M 331.61055506954426 245.88830866355028 C 333.31409828231983 246.37687842850292, 338.898359856052 250.18744974329505, 344.0200252333936 254.35624491864388 C 354.29483148287017 262.7194548444542, 359.5549795768176 265.58751199892777, 367.3240413280689 267.06258871250134 C 379.16244392314485 269.31029281796737, 390.2766083522966 264.94868157365676, 406.149346131012 251.82609594043709 C 416.14844502304067 243.55946712725083, 424.20424447467514 243.28565659186452, 434.2236038338088 250.8718731375573 C 437.5854873568201 253.4173429119008, 442.6229924808996 257.22532757757324, 445.4180596650965 259.33406128349606 C 453.91364402190453 265.7435405210619, 458.37849004310345 267.341055570625, 468 267.41384485544046 C 478.4160766873582 267.4926452491471, 485.1311250062385 264.67543575859065, 497.5 255.03751098190054 C 507.73988454215214 247.05851232688693, 510.31336185070757 245.76923076923077, 516 245.76923076923077 C 521.8294454061153 245.76923076923077, 524.1432410382105 246.97596516171868, 537.4227622194569 256.94203427603856 C 549.886876937104 266.2961538282033, 555.7234385119892 268.5368315655269, 565.5669417081879 267.7466896551572 C 573.5935004477371 267.1023945978231, 580.2732585367241 263.94676130701083, 591.5 255.4954642383054 C 601.8202100012869 247.72658839685084, 605.3482752883317 246, 610.9027817079296 246 C 616.6676645044007 246, 618.6885679585614 247.02380429760836, 630.2161742377639 255.78430425893532 C 642.9378722688448 265.45226414670196, 647.8454698553743 267.4941894106355, 658.168155399529 267.4144054448732 C 667.7062676581329 267.34068544065315, 674.485864001311 264.27148174191075, 686.9447382882969 254.3869049612724 C 696.0282527171169 247.18025902027466, 701.7711155085574 244.76404297271517, 707.5770143008151 245.70621064389715 C 711.3349739045987 246.31604353540644, 714.3994447016794 248.25812338244475, 727.7157135966755 258.4689238945218 C 736.4417796279307 265.15999631149896, 743.0801086703652 267.9191219470088, 750.5684987725704 267.9673541498694 C 760.6923280349064 268.03256103413173, 766.6674936711637 265.0367072137697, 785.3378607852328 250.53454435709688 C 788.5486842171108 248.04054496069358, 791.5805269361715 245.99999999999997, 792.075289049812 246 C 793.1161543902946 246, 798.8362086999497 257.08319961811594, 803.4900535977644 268.1172924643748 L 806.7027959739999 275.73458492874965 798.7972287267518 276.2764445800326 C 789.0648764821063 276.94351486462006, 783.5828387216358 279.4531713827744, 772.5 288.3152181834133 C 762.2221242495264 296.53360141532295, 759.1318431968818 298.0619364804807, 752.6353123577071 298.13953453682154 C 746.0378625057468 298.21833802409674, 741.1707957843396 295.8766122836362, 731 287.7299858803161 C 720.1414150001191 279.03245255662745, 714.2782049147241 276.5, 705 276.5 C 695.8096199837012 276.5, 690.1363199384317 279.0164810957766, 679 288.03270723707783 C 668.8280614207456 296.2681475829933, 665.2672596088429 298, 658.506594337108 298 C 651.6265439078746 298, 646.4090391246544 295.46013426486724, 636 287.0438571412153 C 624.6782808321421 277.88962831262324, 621.2771873408816 276.4900495190025, 610.5 276.550391045962 C 599.7716064294536 276.6104593763521, 597.7018439230868 277.5145319258258, 584.5320744196038 287.8931845364195 C 575.1767259886725 295.2658201311441, 569.2948093405374 298, 562.7897425371957 298 C 557.1357928984432 298, 553.5449782169013 296.1536810546452, 541.7167655238957 287.1647327569758 C 522.1756931602035 272.3143328092206, 509.63483360827416 272.2602109171101, 491 286.9458572245202 C 478.4933853911868 296.80200740589703, 477.3053441704135 297.41736893401645, 469.984667620129 297.83102418766464 C 461.66825862030726 298.30094336120465, 459.3976669969391 297.30672183174715, 447.7760648074825 288.1065669896991 C 437.1187875336922 279.6698127870418, 431.72074214424566 276.9663758812572, 424.1638257664978 276.28113873813163 C 415.34220999260026 275.4812226760118, 408.66441365001884 277.8609015891835, 398.98288248695064 285.2545420379616 C 384.39169216102687 296.39761570807514, 381.34563905601465 298, 374.75439872327576 298 C 367.51689791906057 298, 364.1455185630289 296.3501564650453, 352.4261412226488 287.0732761300485 C 335.41410123556096 273.606804778314, 323.35635228380795 272.3655652550494, 308.48115369649145 282.5495250065931 C 304.90583176647027 284.9972862529669, 301.85953888317266 287, 301.7116139558301 287 C 301.56368902848754 287, 301.5907368185344 280.8125, 301.77172015593425 273.25 L 302.1007807693885 259.5 307.25456903188797 254.7377011110989 C 316.1866913565356 246.48407599970005, 323.9070865466317 243.67898296090058, 331.61055506954426 245.88830866355028 M 336.18818544903434 297.5973144777504 C 337.9227303037441 298.4942824821147, 342.75247510918354 301.9379070552517, 346.92095168334424 305.24981352916586 C 358.39166963121215 314.36344157915346, 363.5352596842711 316.4337260605281, 374.5 316.3503240970905 C 386.0149415357315 316.2627370950006, 389.99179017752454 314.7531553235359, 401.5045974281554 306.09958244329056 C 406.51841331129 302.330960229064, 412.168485387601 298.43771877046714, 414.06031315329096 297.4479347575199 C 421.15212000379813 293.7375774137679, 430.96764640230845 295.9669826713055, 439 303.11249789147803 C 450.07033349863957 312.96057486478884, 457.8469722889672 316.3869725878773, 469.0520258059223 316.3534617026916 C 479.64704006693825 316.3217752581865, 484.4413385388523 314.30504707734764, 497.927140839442 304.2071052432002 C 513.9458443133733 292.2125696321345, 519.3284489467914 292.3261741962137, 536.0072209094178 305.01081853649885 C 548.3304975908268 314.3829942674742, 552.8300011131228 316.23809523809524, 563.2387149707431 316.23809523809524 C 573.7215748587685 316.23809523809524, 579.5814198566283 313.8355044754969, 592 304.4457017947553 C 601.3115229356488 297.4051736495463, 604.5179643565377 296, 611.272100691557 296 C 617.1794521583413 296.00000000000006, 620.5139764996312 297.72965070859004, 632.7935916338266 307.1634099044573 C 643.0646193138467 315.05408080647703, 646.7855124480013 316.41460356252577, 658 316.37998531901235 C 669.7780842611918 316.3436272966608, 672.922905276578 315.06386117951934, 686.5398154350307 304.76587799636116 C 692.0179169457639 300.62298533005804, 698.2168306825275 296.68626461829706, 700.3151792945056 296.0176097480034 C 707.04213433446 293.8740139584212, 713.6660807549958 296.09717237903, 722.5 303.46337815099224 C 735.5743266775692 314.3654679217693, 740.6883399545827 316.37804862162153, 753.8546888201344 315.80277544057583 C 764.9733848913058 315.31696971544585, 767.5347998545573 314.26901593284293, 779.0710949378213 305.4859667415516 C 791.1434649545685 296.29478196799414, 796.9772496552214 294.108969712491, 804.2260452811561 296.06086767320903 C 811.2973196009589 297.9649641102941, 816.1097286914753 303.568523982319, 819.778184982827 314.16974917460607 C 821.5539410106175 319.30138712857274, 823.0052950372138 323.75379764635977, 823.0034161530411 324.0639947696883 C 823.0015372688686 324.37419189301687, 705.7750000000001 324.66614092005784, 562.5 324.7127703853348 L 302 324.797551231293 302 317.5202493681984 L 302 310.24294750510376 307.25 305.7765905743676 C 313.1109795905081 300.7904521334211, 319.60926515912615 296.5020342106435, 322.5542609450829 295.67683945713304 C 325.6332187467297 294.81410823139925, 332.74260769863105 295.81553697556035, 336.18818544903434 297.5973144777504 M 829.4515991980714 347.25 C 836.4941426475626 389.46172557167336, 837.4749957106012 400.3471755499395, 837.4485776894046 436 C 837.423048955354 470.4526740576638, 836.9283258338328 476.4904853127664, 830.9755156891399 515 C 825.3083150088983 551.6618693569138, 805.85533983545 606.30592715279, 785.8645610669456 641.7181801047544 C 767.9323135700243 673.4838902710179, 756.8653100783158 688.7166384461821, 730.7254171744839 717.612318399486 C 712.7521258023082 737.4804363412289, 710.1630293642856 739.2328215107616, 697.916709052011 739.8183253681789 C 687.0665928536657 740.3370758765409, 681.8946520157676 738.2375180788677, 671.5 729.0944193496496 C 660.7545590739142 719.6427679497608, 653.9309183503394 716.657056816868, 643.190301512431 716.7073982025437 C 631.0986223858939 716.7640720315762, 625.4048798973175 719.0984515546447, 615.6341425898906 728.0051576730962 C 606.1499104063224 736.6506944591474, 599.5771606462033 740.1037062001747, 591.3472893960948 740.7643212334721 C 583.1615694364393 741.4213922251525, 575.2711058723768 737.7908955643344, 565.2465073634523 728.7550392381995 C 554.6804863006465 719.2311617305436, 550.7762185966326 717.5944169940058, 538.5 717.5423846594952 C 526.1592892086911 717.4900789770134, 520.9002446146283 719.6184656239358, 510.4774098733153 728.8834002320095 C 500.55848938211267 737.7004017497846, 494.4623441903508 740.4736842105262, 485.00000000000006 740.4736842105262 C 475.5518534713789 740.4736842105264, 469.3286917807473 737.6013825160296, 460 728.9349285213531 C 456.425 725.6137154553462, 451.8352753691487 722.0221518524942, 449.8006119314416 720.9536760705706 C 443.90763069033994 717.8590572639624, 433.2564575540839 716.4133264403208, 426.1233815421983 717.7398609016411 C 417.92579944351075 719.2643610100506, 414.9533121538079 720.8318926455858, 404.4946033499384 729.1457276892934 C 391.7702965031755 739.2605315482904, 386.82608131352634 741.3656160764533, 377.14300369212845 740.7911409756533 C 367.5432685901722 740.2216103980854, 364.39335502216034 738.605489258728, 355.5 729.6867995291935 C 345.4760565536255 719.6343006418954, 340.47532603607493 717.4975008068612, 327 717.5088197150963 C 313.79783012681634 717.5199091795662, 308.7834019729591 719.6215268840042, 296.12199893021705 730.4502263390991 C 286.1788820229107 738.9541041694329, 281.56580892857403 741, 272.33443540947223 741 C 263.9027652408689 740.9999999999999, 259.5527908616194 738.750507810051, 249.85950125247368 729.3775892803059 C 239.28473271096317 719.1523254114774, 233.43887532303808 716.5148450342813, 221.41303056026823 716.5433712567619 C 210.1639020425653 716.5700550489727, 203.06364135203836 719.6490515014718, 192.4248997125041 729.1139452025793 C 180.83907972913582 739.4214193661824, 169.42664566919981 742.861217943578, 159 739.1884763566553 C 149.65567147398133 735.8969763797495, 113.54806182512712 695.7102732954985, 95.03740743812989 668 C 56.31965015603102 610.0398861517627, 32.90912359810832 539.9735585876475, 27.8793872916249 467 C 26.475394537028222 446.63027457281845, 27.28002238872782 404.1573079825897, 29.396389784255245 386.92373113771146 C 30.831269566109995 375.2395070110242, 36.35471536570134 346.8531094650882, 37.578725585048694 344.872619327607 C 37.8843094960441 344.37817417320133, 209.47388852800952 344, 433.5137039357205 344 L 828.9093738826912 344 829.4515991980714 347.25 M 222 364.9465907274426 C 206.8802198037305 367.7980117337412, 189.1387380767181 380.1029425478019, 181.2411183259511 393.21566243040206 C 164.39349422248034 421.1884165674576, 167.26900310572535 464.1840103507544, 187.49273033341098 486.69190655877986 C 194.21554406151117 494.1740285195043, 204.32256570886574 501.08236659401655, 212.6416176481573 503.88164076831873 C 243.58929584478577 514.2952115649225, 274.475185720758 502.019158343267, 289.2054974358386 473.4501956357888 C 295.1151020008095 461.98870889347154, 296.93003533795496 455.12264514056557, 297.65101691753136 441.5 C 299.5074804361034 406.42289893901244, 280.30688310493923 374.89160586614435, 252 366.53172850957003 C 245.56335645993164 364.6307933065144, 228.46505222207279 363.7273543712564, 222 364.9465907274426 M 358 366.5760804074072 C 335.3995519093591 372.5116080792513, 317.75398448423954 391.58230067789367, 312.2694581712849 416 C 309.89314209504124 426.57961401460506, 309.9082100585494 449.2264753256269, 312.2974026382312 458 C 320.7481653825497 489.03264930800464, 347.9992693711686 509.47599594213256, 378.5 507.6641400844338 C 394.10492016746707 506.7371502900443, 403.630361718458 502.33864486963046, 415.6553558766016 490.50713656435687 C 422.81072343562573 483.46690106914485, 424.3004731208487 480.4983910219689, 422.23468722548296 477.3970071200736 C 421.33756453375366 476.0501483384372, 405.51229240691566 465.8121617479385, 399.9084672631344 462.9533034820547 L 395.8487393375291 460.8821848372776 390.7969494838803 466.01428833364906 C 384.66463996053926 472.2440896629422, 382.3774403224433 473.2246295850327, 374 473.2152686346046 C 365.92388236390303 473.20624438209643, 361.4353211231746 471.3311304963254, 356.5526111144269 465.92655418576777 C 346.3553198852322 454.6393717582993, 343.4820829830943 435.60036052082563, 349.18805350848214 417.1265770887607 C 353.01442590554933 404.7382244536854, 364.045703116702 396.2729827363132, 375.0612789603507 397.27184011988993 C 382.5008422359022 397.9464360569381, 387.0097739302804 400.6924296189051, 391.1373468402544 407.0623585602116 C 395.26196218225465 413.42772319744824, 396.1827195926562 413.3913942815649, 410.4263385451989 406.30130233714203 C 424.4444043735458 399.3234846956354, 425.38360713132676 398.0481287533531, 421.4619033452542 391.3159618155221 C 414.56377128247897 379.4743289082304, 400.8210266756884 368.81071264229564, 388.9244460578915 366.06867907039737 C 382.5229273311005 364.5931980205116, 364.41909428695175 364.89024163042484, 358 366.5760804074072 M 84 435.39301119581586 C 84 496.8360016978985, 84.16073945926806 503.8477039096141, 85.58178746823626 504.39301119581586 C 88.0286893357713 505.33197554365404, 165.32662333705352 505.0792897332127, 166.8280732948546 504.12741828127423 C 168.6767702849937 502.95540327068056, 168.109237049465 475.7005269443941, 166.19650025736354 473.79713284556624 C 165.20693234315831 472.8123984398364, 159.54724732226828 472.5, 142.69650025736354 472.5 L 120.5 472.5 119.97766706949764 420 C 119.69038395772134 391.125, 119.35288395772135 367.3875, 119.22766706949764 367.25 C 119.10245018127394 367.1125, 111.125 367, 101.5 367 L 84 367 84 435.39301119581586 M 438.2086234726893 368.72603865338715 C 436.94719888239575 371.24771988047235, 436.6883262394736 501.1007898989118, 437.9409374237997 503 C 439.1232166947811 504.79257279661215, 470.5774745393654 505.46593112925507, 472.75 503.74517645442427 C 473.660302116412 503.0241691977973, 474 498.23061502236993, 474 486.10614186287637 L 474 469.45717315663705 479.0857805178415 462.4785865783185 C 481.8829598026543 458.64036396024335, 484.30915248737693 455.3613073152772, 484.4773198172251 455.19179403394935 C 484.6454871470733 455.02228075262155, 487.17334987975585 459.0722807526215, 490.09479255651956 464.19179403394935 C 502.22720730463834 485.4525426810447, 512.1422765556405 501.60355911144296, 514.0257879475039 503.17386162934264 C 515.7783052407971 504.6349530409526, 518.3512033397571 504.80321788777786, 534.2667570546972 504.4975998558168 C 544.2950406746138 504.3050319842392, 553.0625 504.11429425103495, 553.75 504.0737382264742 C 556.8035404461723 503.8936081008998, 553.8756032325844 498.0129729069665, 537.5317077248123 471.5 C 517.2022561292032 438.5216810238676, 511 428.13663995098096, 511 427.0753795528282 C 511 426.00500433033875, 520.5864224871124 412.3545500085217, 543.2443034396871 381.16154758537846 C 547.503670331515 375.2976964134203, 550.8728412799837 369.825, 550.7313499918398 369 C 550.5149341637148 367.73813391237536, 547.459786651027 367.4628862357852, 531.4870465521526 367.2662212585898 C 512.8517099357914 367.0367729593, 512.470462207261 367.073820315225, 510.90540346259877 369.2662212585898 C 510.02837536702816 370.49479956636543, 503.24716319656653 380.275, 495.8360430837952 391 C 488.4249229710239 401.725, 480.3674914128544 413.3520133529433, 477.9306396211964 416.8378074509851 L 473.5 423.1756149019703 473 395.3378074509851 L 472.5 367.5 455.79800748202666 367.22603865338715 C 440.6442189047478 366.9774723628413, 439.01375753264864 367.1165160073971, 438.2086234726893 368.72603865338715 M 568.2431045586147 435.7400084164608 L 568.5 504.5 616 504.5 L 663.5 504.5 663.7777197699525 489.5777197699525 C 663.9374236068369 480.99660432322236, 663.6483990511769 474.2483990511769, 663.0975757332812 473.69757573328127 C 662.5371589397784 473.1371589397783, 650.1814715254756 472.68998001873865, 633.3198559633288 472.61985596332875 L 604.5 472.5 604.5 461.5 L 604.5 450.5 627.5 450.38110492368617 C 640.15 450.3157126317135, 651.0625 450.20321263171354, 651.75 450.13110492368617 C 652.6865009230489 450.0328810180475, 653 446.3634107073674, 653 435.5 L 653 421 649.75 420.95438072092935 C 647.9625 420.9292901174405, 637.05 420.8167901174405, 625.5 420.70438072092935 L 604.5 420.5 604.5 409.5 L 604.5 398.5 632.5 398 L 660.5 397.5 660.5 382.5 L 660.5 367.5 614.2431045586147 367.2400084164608 L 567.9862091172294 366.98001683292154 568.2431045586147 435.7400084164608 M 679.2431075968148 435.75 L 679.5 504.5 695.9243927202301 504.77560727977004 C 705.3180784654318 504.9332367409836, 712.7536772665779 504.6463227334222, 713.2946508256892 504.1053491743106 C 713.8148767875651 503.5851232124344, 714.3626324414209 493.7860999365379, 714.5118856120355 482.3297418945406 C 714.6611387826499 470.87338385254327, 714.8320226351933 461.1625, 714.8916275065764 460.75 C 714.9512323779594 460.3375, 718.1647387198963 460, 722.0327527108806 460 L 729.0655054217611 460 733.6662159248572 469.75 C 736.1966067015601 475.1125, 740.6348118121198 484.57219236970616, 743.5288939483232 490.7715385993471 C 746.4229760845268 496.970884828988, 749.3430177601863 502.70838482898796, 750.0178754497888 503.5215385993471 C 751.449082501785 505.2460375988039, 783.3483261434121 505.6975634743048, 785.9846645375239 504.03063957096396 C 787.2159724294551 503.252098939755, 785.381494760402 498.8994271298131, 775.2346645375239 478.5240756338686 C 768.5055990418857 465.01176965246725, 763 453.5908890274451, 763 453.14434091159717 C 763 452.69779279574925, 765.478844615364 450.6251895730444, 768.5085435896976 448.5385559722531 C 779.0996070969051 441.24421116457694, 784.7737078788747 430.4974648074836, 785.7163989584626 415.9468794928174 C 787.111200204827 394.4179025334788, 777.6165712701358 377.4900142729961, 760.5689231002723 371.1116716833535 C 751.2957134587175 367.6421193198799, 743.686948258627 367.015390659366, 710.7431075968148 367.00755415727684 L 678.9862151936294 367 679.2431075968148 435.75 M 743.1577925464778 398.2598290076997 C 752.6857013450643 403.4819975089983, 752.9973237571421 421.4408526699589, 743.6807067806365 428.39546954216144 C 741.2112469290721 430.2388583164585, 739.219761510786 430.54017246230393, 727.6314048756853 430.8237482784762 L 714.4013961900978 431.14749655695243 714.1535100274679 413.9119291024797 C 713.9648036660649 400.79114338962125, 714.2104787277859 396.4879509810694, 715.1825680344458 395.88716674945323 C 717.7696843225574 394.2882409505517, 739.2328409599094 396.1085953028242, 743.1577925464778 398.2598290076997 M 245.61608752111928 399.9131155972177 C 259.90891258382317 406.40375224102047, 266.5038236617596 438.28733690377516, 257.6706265280387 458.1916746946142 C 252.53316377652826 469.76820722818, 246.29233114224914 473.9419187113657, 234.06572434764718 473.97803799950907 C 215.87914301666285 474.0317639745465, 207.5 462.21074843315677, 207.5 436.5 C 207.5 417.36910352562006, 212.81247661284806 404.25817037327175, 222.31170038890934 399.94544591463307 C 228.01923933180203 397.3541770512047, 239.94469852743717 397.3376327894341, 245.61608752111928 399.9131155972177 M 570.8513517603908 526.0508704647068 C 547.9472404536904 528.125354600328, 530.5717792033129 539.107425126865, 519.5114344391022 558.5 C 511.69122308610645 572.2115105740141, 509.7413483607321 579.9281071060943, 509.6566864328463 597.5 C 509.55970856303765 617.6281117015732, 511.7068109657677 625.1705702399656, 521.8718874195345 640.4102248980189 C 533.9923975013676 658.5814987459539, 553.1780252860901 668.2223448158582, 577.329934964558 668.2780906628677 C 602.6917988025912 668.3366292463675, 624.7949058220985 654.1366325469398, 637.0364401438246 629.9200364883263 C 645.1760321960619 613.8180342694463, 646.1019594544857 589.5601295208545, 639.3008785459092 570.5951483104728 C 628.1465785896248 539.4911088306424, 603.0167090593717 523.1375715141467, 570.8513517603908 526.0508704647068 M 331.45969108703724 529.25 C 331.1970444608803 529.9375, 331.0986676192327 561.1, 331.24107588337597 598.5 L 331.5 666.5 349 666.5 L 366.5 666.5 366.76877448448295 643.75 L 367.0375489689659 621 374.075004916216 621 L 381.1124608634662 621 383.1719479316322 625.75 C 384.30466581912356 628.3625, 387.70774262810403 635.675, 390.7343408404778 642 C 393.76093905285154 648.325, 397.51286169930233 656.2562948634092, 399.07194672147955 659.6250996964648 C 400.6310317436567 662.9939045295204, 402.6394556011022 666.0314045295204, 403.5351108491362 666.3750996964648 C 404.43076609717014 666.7187948634091, 413.22677057576476 667, 423.08178746823535 667 C 444.06876120246494 667, 443.19121662062656 667.7398035951811, 436.60260530930543 655.6014342112885 C 431.67013541974893 646.5142170929424, 416 615.4659632915194, 416 614.780158486531 C 416 614.5363273586906, 418.190617401333 612.9173575921246, 420.86803866962885 611.182447894162 C 426.91135186610586 607.2665147548594, 432.2612857296207 600.8351507573273, 435.75841157157174 593.2821503139473 C 439.6463399034007 584.8851049283141, 440.2124372106265 568.9906941273484, 436.98146224898926 558.9423475112465 C 431.19027656121324 540.9317340586764, 417.85779985138646 531.3345231397558, 395.33717432251115 528.9652454695761 C 381.39629841299063 527.4985985528276, 332.0447344019057 527.7185991026905, 331.45969108703724 529.25 M 456.45969108703724 529.25 C 456.1970444608803 529.9375, 456.0986676192327 561.1, 456.24107588337597 598.5 L 456.5 666.5 474.6275931828959 666.7720853667458 C 491.28499642543125 667.0221039778517, 492.7885876466901 666.9004504914626, 493.16702759479875 665.2720853667458 C 493.39354027075257 664.2974384150357, 493.1983682626035 650, 492.7333120211341 633.5 C 492.2682557796648 617, 492.14740005805373 587.1324223878004, 492.46474375088735 567.1276053062231 C 492.8862849424642 540.5543517004983, 492.7337112005506 530.3840679127977, 491.8984214262139 529.3776053062231 C 490.3184437876543 527.4738487162456, 457.1838164832527 527.3545398633803, 456.45969108703724 529.25 M 201.5 531.4090230130553 C 184.40631289715486 535.6446081997364, 174.61898522485188 547.8493511843558, 173.29731199346134 566.5776175589679 L 172.72113803900325 574.7420707996921 163.6105690195016 575.2206323674123 C 149.4946536865855 575.9621156443698, 141.81323740426348 581.1550743274058, 138.54292586350954 592.1674075981394 C 136.30287088997153 599.7104907588579, 136.26349675829073 672.1569221603957, 138.49536748365728 679.672445968647 C 140.47463683618867 686.3373687049086, 146.51518623768766 693.0844002761539, 153.2123245539878 696.1106484211493 L 158.5 698.5 222.5 698.5 C 286.2300512823331 698.5, 286.5168717948542 698.4908670206954, 290.5 696.334734387524 C 295.71591265380766 693.511275310782, 301.5053422822887 687.452989050711, 303.4511732916885 682.7821186308972 C 305.6020430274132 677.6190629611409, 305.7803546446031 594.7979500439617, 303.65153807868785 589.7178813691033 C 299.78873995929763 580.4999524794996, 292.4365066365959 576.1575556557613, 279.2451760058886 575.3029268250618 L 270.3745897964535 574.7282267487753 269.20090535589134 564.2251954098604 C 267.8703518501086 552.318378989387, 265.97096986050076 548.1288645973428, 258.52981947870546 540.6877142155474 C 253.2814816329599 535.439376369802, 247.54133706396357 532.4301851837959, 240.07856383168055 531.0148993244964 C 232.7774128496384 529.6302644950746, 207.6422822066454 529.887048299797, 201.5 531.4090230130553 M 241.69566595529813 553.9559971211353 C 246.53309132344384 556.9055622662019, 248.21327208196954 560.2485234051103, 248.7701564556442 568.0317129036363 L 249.2687348592638 575 222.13436742963188 575 L 195 575 195 568.4503400731157 C 195 560.755503440129, 196.74788203740817 556.734219504934, 201.2985485148422 553.9595155119006 C 206.11108522252474 551.0251398801895, 236.88452674875836 551.0224596643884, 241.69566595529813 553.9559971211353 M 395.22779199717604 559.8479195657801 C 399.9404884314993 562.7837905233941, 401.27991468099134 565.5969955102842, 401.7278355343468 573.5 C 402.5254117129929 587.572236363885, 396.9153812646247 592, 378.28811024090857 592 L 367 592 367 575.1666666666667 C 367 565.9083333333334, 367.3375 557.9801579387597, 367.75 557.5484991231696 C 368.1625 557.1168403075794, 373.7775063987292 556.9989621561836, 380.22779199717604 557.2865476756231 C 389.6788637266861 557.7079230288705, 392.59081885201687 558.2051630290985, 395.22779199717604 559.8479195657801 M 585.9403439601922 559.4789521232544 C 597.575429882979 563.5840495319392, 604.7825986041057 574.7882574512772, 606.9604009039205 592.1565676456282 C 609.1810408379719 609.866514598963, 601.5180191125773 628.182176762226, 589.4419195060079 634.028116284759 C 582.4106123702353 637.4319136712694, 568.1858362252707 636.6444005032172, 561.452601545504 632.4785694775495 C 550.5607260565738 625.7398005206553, 546.5 616.2405579930653, 546.5 597.5 C 546.5 583.6358047617518, 548.4106976036095 576.9601810948511, 554.7976224334232 568.5096434983084 C 561.8953596997335 559.1186302614914, 574.5326748722244 555.4540920471944, 585.9403439601922 559.4789521232544 M 229.83923767672994 606.7838670101421 C 233.619269542678 608.5143712218288, 237.48314477973886 613.884551093217, 238.50518605307968 618.8281745205891 C 239.6483169406622 624.3575095717395, 238.20667836445566 628.7005318538015, 233.45049135290725 634.0557440891247 C 231.00272110880826 636.8118024881386, 228.9992275925753 639.6142385040458, 228.99828353905622 640.2833796800296 C 228.9973394855371 640.9525208560133, 230.1683079765338 647.9181717922129, 231.60043574127104 655.7626039826953 C 233.0325635060083 663.6070361731776, 233.94745907178546 670.6945361731777, 233.63353699855358 671.5126039826953 C 232.8660729223967 673.5125833062307, 208.49387643789262 673.7294046576525, 207.73163449441967 671.7430339937496 C 207.46634578174775 671.0517026903118, 208.3119635240201 664.6392026903118, 209.61078503280265 657.4930339937496 C 212.6504086688732 640.7689012853389, 212.63730650046097 638.5463974095519, 209.4804800654519 635.3895709745427 C 203.91025828217715 629.8193491912679, 202.3429360936101 624.495077486143, 204.1550094747986 617.298681565127 C 206.8995691390299 606.3990468275398, 218.56598629776198 601.6229557579262, 229.83923767672994 606.7838670101421 M 235.5317820995678 761.1246025062794 C 238.92662504375917 762.376676352763, 242.7966890978163 765.1379423327511, 247.42795977204045 769.6124492809231 C 255.30543674997202 777.2232818042723, 262.0787166254242 780.7253299696247, 270.6549997274328 781.6217290033142 C 281.2777554954861 782.7320267736121, 287.499586903999 780.0310023657969, 302.636365155794 767.7379634453033 C 317.7974446266882 755.4251887641855, 337.04681068470313 755.3282032021434, 349.9931704125605 767.4993620097807 C 369.3606019369363 785.7071122758267, 387.884832759902 786.5098213983317, 406.04634245671724 769.92830996315 C 416.20839567016105 760.6503256778901, 426.11762509467695 757.1700414822335, 437.2621313152396 758.9648119992733 C 444.8085666055526 760.1801300492386, 449.50994669422045 762.6307325307112, 458.42393599622505 769.9954391950323 C 469.4334668137491 779.0914749020345, 474.7530169146301 781.3795214286256, 485 781.4263440236621 C 495.5742703771884 781.474662126225, 501.062446341617 779.1183026920271, 512.0462848804747 769.8139669877984 C 522.231905211694 761.1857965551932, 528.2114474727218 758.6620907913743, 538.5 758.6489997700417 C 548.3123779791556 758.636514627053, 553.4092386073721 760.6729694959774, 561.1811973905346 767.7112908994648 C 581.5602643310987 786.1666670836022, 599.0887607205356 786.5179245433236, 618.572081797746 768.8613596686373 C 622.2630365919014 765.5164687994535, 626.8630687914664 762.1195068624876, 628.794375574557 761.3125553642687 C 638.2917731685862 757.344289273773, 651.3975149095006 757.9144576102964, 660.1470686505336 762.6765615540787 C 665.7330875607425 765.7168540615235, 670.9077587632646 770.7852431952587, 669.4590956113825 771.7973296984222 C 637.8741474325678 793.863673909199, 597.6542771215165 815.8999003339502, 587.3434327746247 816.7880103071591 C 580.8701461885366 817.3455776782811, 573.2177552680597 814.0865007898991, 566.2819347312701 807.8181285772384 C 557.0515858281642 799.4760351983094, 551.9186646616058 796.6172623263815, 543.3959134902309 795.0717928071691 C 531.8548396777107 792.9789970141702, 521.5941478314115 796.6733290039319, 508.50286877707913 807.6349311642067 C 498.1062923248794 816.3402023928556, 493.4989178253759 818.3979036736824, 484.5 818.3548615348411 C 476.01994285712357 818.3143011247996, 469.932650430244 815.8903257527517, 462.59163441334 809.6308944736581 C 454.7003159425345 802.9022392635746, 444.0253574539696 796.0953832043517, 440.25512224192477 795.3880828150675 C 438.3764811221399 795.0356476165674, 433.6130436141585 794.9569638697831, 429.66970555752164 795.2132300444356 C 420.5746973735443 795.8042884123122, 413.6391511821558 799.0988578057586, 403.20857818694367 807.7829711932204 C 392.00270297486253 817.1125728356354, 389.10748242329055 818.4100249523493, 379.5 818.4076349813467 C 369.6575714793162 818.4051865648185, 363.6562352154359 815.6775335451402, 354.31417069004044 806.9604838220494 C 345.0111643699782 798.2798791820617, 336.83773129343587 794.6242945777976, 326.638707152806 794.5825763411717 C 316.37839306996017 794.5406074032751, 310.31955031825584 797.1381609588707, 300.6438094877627 805.727136717521 C 285.492227179321 819.1769154406422, 280.51416630293033 819.999519151318, 263.76568816587184 811.82109181277 C 241.45628957866052 800.9272187205933, 199.1368361491639 775.2664905121119, 196.53362839395612 771.0544118844082 C 195.81461418773662 769.8910224603509, 202.12072082699828 764.4892224930989, 207.25671727699114 761.8690326178119 C 214.96937372331033 757.9343288988789, 226.08803928239126 757.6415950185439, 235.5317820995678 761.1246025062794" stroke="none" fill="#000000" fill-rule="evenodd" data-fill-layer-id="trace-color"/>
</svg>